<svg xmlns="http://www.w3.org/2000/svg" version="1.1" xmlns:xlink="http://www.w3.org/1999/xlink" xmlns:svgjs="http://svgjs.dev/svgjs" width="2000" height="611" viewBox="0 0 2000 611"><g transform="matrix(1,0,0,1,-1.2121212121212466,-0.04396110841037171)"><svg viewBox="0 0 396 121" data-background-color="#ffffff" preserveAspectRatio="xMidYMid meet" height="611" width="2000" xmlns="http://www.w3.org/2000/svg" xmlns:xlink="http://www.w3.org/1999/xlink"><g id="tight-bounds" transform="matrix(1,0,0,1,0.2400000000000091,0.008705882352955996)"><svg viewBox="0 0 395.52 120.98258823529412" height="120.98258823529412" width="395.52"><g><svg viewBox="0 0 395.52 120.98258823529412" height="120.98258823529412" width="395.52"><g><svg viewBox="0 0 395.52 120.98258823529412" height="120.98258823529412" width="395.52"><g><svg viewBox="0 0 395.52 120.98258823529412" height="120.98258823529412" width="395.52"><g id="textblocktransform"><svg viewBox="0 0 395.52 120.98258823529412" height="120.98258823529412" width="395.52" id="textblock"><g><svg viewBox="0 0 395.52 120.98258823529412" height="120.98258823529412" width="395.52"><g transform="matrix(1,0,0,1,0,0)"><svg width="395.52" viewBox="2.5 -37.9 169.99 52" height="120.98258823529412" data-palette-color="#919591"><path d="M16.05 1.75L16.05 1.75Q11.4 1.75 8.4-0.35 5.4-2.45 3.95-6.03 2.5-9.6 2.5-14L2.5-14Q2.5-17.5 3.7-21.03 4.9-24.55 7.13-27.45 9.35-30.35 12.45-32.13 15.55-33.9 19.3-33.9L19.3-33.9Q20.7-33.9 22.38-33.38 24.05-32.85 25.6-31.93 27.15-31 28.15-29.83 29.15-28.65 29.15-27.35L29.15-27.35Q29.15-26.95 28.7-26.5 28.25-26.05 27.55-26.05L27.55-26.05Q27.2-26.05 26.88-26.18 26.55-26.3 26.3-26.5L26.3-26.5Q25.9-26.8 25.65-27.05L25.65-27.05 24.9-27.85Q24.1-28.75 22.8-29.5 21.5-30.25 19.3-30.25L19.3-30.25Q16.15-30.25 13.68-28.65 11.2-27.05 9.47-24.55 7.75-22.05 6.85-19.25 5.95-16.45 5.95-14L5.95-14Q5.95-11 6.98-8.3 8-5.6 10.23-3.9 12.45-2.2 16.05-2.2L16.05-2.2Q18.75-2.2 21.2-3.55 23.65-4.9 25.2-7.18 26.75-9.45 26.75-12.15L26.75-12.15Q26.7-12.35 26.05-12.45 25.4-12.55 23.15-12.65L23.15-12.65Q22.65-12.7 22.15-12.7 21.65-12.7 21.1-12.7L21.1-12.7Q20.05-12.7 18.98-12.68 17.9-12.65 16.85-12.65L16.85-12.65Q15.05-12.65 15.05-14.75L15.05-14.75Q15.05-15.35 15.58-15.88 16.1-16.4 17.2-16.6L17.2-16.6 20.3-16.6Q22-16.6 23.78-16.5 25.55-16.4 27.08-15.93 28.6-15.45 29.53-14.3 30.45-13.15 30.45-11.05L30.45-11.05Q30.45-8.4 29.18-6.08 27.9-3.75 25.8-2 23.7-0.25 21.15 0.75 18.6 1.75 16.05 1.75ZM41.45-32.7L41.45-32.7Q39.8-32.7 38.82-33.48 37.85-34.25 37.85-35.5L37.85-35.5Q37.85-36.65 38.95-37.27 40.05-37.9 41.75-37.9L41.75-37.9Q43.45-37.9 44.4-37.13 45.35-36.35 45.35-35L45.35-35Q45.35-33.9 44.27-33.3 43.2-32.7 41.45-32.7ZM38.85-0.75L38.85-0.75Q38.15-0.75 37.77-1.65 37.4-2.55 37.27-3.95 37.15-5.35 37.15-6.85L37.15-6.85Q37.15-7.55 37.17-8.28 37.2-9 37.2-9.65L37.2-9.65Q37.2-9.85 37.35-10.98 37.5-12.1 37.7-13.6 37.9-15.1 38.12-16.57 38.35-18.05 38.5-18.9L38.5-18.9Q38.65-19.55 38.85-20.63 39.05-21.7 39.57-22.58 40.1-23.45 41.1-23.45L41.1-23.45Q42.25-23.45 42.72-23.03 43.2-22.6 43.2-21.7L43.2-21.7Q43.2-21.45 43.17-21.2 43.15-20.95 43.1-20.65L43.1-20.65Q42.85-19.05 42.47-16.68 42.1-14.3 41.82-11.73 41.55-9.15 41.65-6.85L41.65-6.85Q41.7-6.3 41.77-5.58 41.85-4.85 41.85-4.15L41.85-4.15Q41.85-2.85 41.3-1.8 40.75-0.75 38.85-0.75ZM52.05-0.5L52.05-0.5Q51.25-0.5 50.75-0.98 50.25-1.45 50.25-2.15L50.25-2.15Q50.25-3.9 50.37-5.6 50.5-7.3 50.5-9.05L50.5-9.05 50.5-12.6Q50.5-14.05 50.45-15.53 50.4-17 50.25-18.8L50.25-18.8Q50.1-20.2 49.65-21.73 49.2-23.25 49.2-24.35L49.2-24.35Q49.2-26.5 50.5-26.5L50.5-26.5Q52-26.5 52.77-23.58 53.55-20.65 54.25-15.2L54.25-15.2Q54.35-14.55 54.5-14.28 54.65-14 54.8-14L54.8-14Q55.1-14 55.37-14.38 55.65-14.75 55.8-15L55.8-15Q56.2-15.75 56.72-16.75 57.25-17.75 57.65-18.45L57.65-18.45Q58.05-19.15 58.52-19.83 59-20.5 59.5-21.1L59.5-21.1Q60.5-22.35 61.65-23.08 62.8-23.8 64.15-23.8L64.15-23.8Q65.34-23.8 66-23.15 66.65-22.5 67.15-21.45L67.15-21.45Q67.45-20.85 67.67-20.28 67.9-19.7 68.09-19.15L68.09-19.15Q68.34-18.6 68.75-17.38 69.15-16.15 69.75-15.35L69.75-15.35 71.25-17.5Q72.15-18.8 73.02-20.08 73.9-21.35 75-22.45L75-22.45Q76.05-23.55 77.2-24.23 78.34-24.9 79.59-24.9L79.59-24.9Q81.3-24.9 82.45-23.5 83.59-22.1 84.2-20.05 84.8-18 84.84-16.05L84.84-16.05 85.15-4.5Q85.2-3.7 84.8-2.63 84.4-1.55 83.25-1.55L83.25-1.55Q82.59-1.55 82.15-2.08 81.7-2.6 81.7-3.15L81.7-3.15 81.7-13.1Q81.7-14.1 81.55-15.43 81.4-16.75 81.07-18 80.75-19.25 80.2-20.08 79.65-20.9 78.8-20.9L78.8-20.9Q77.45-20.9 76.34-19.63 75.25-18.35 74.32-16.23 73.4-14.1 72.45-11.55L72.45-11.55Q71.5-8.3 70.82-7.2 70.15-6.1 69.4-6.1L69.4-6.1Q68.75-6.1 68.34-6.4 67.95-6.7 67.65-7.2L67.65-7.2Q67.3-7.8 67.09-8.63 66.9-9.45 66.75-10.1L66.75-10.1 65.8-14.5Q65.59-15.4 65.37-16.7 65.15-18 64.67-18.98 64.2-19.95 63.25-19.95L63.25-19.95Q62.6-19.95 61.87-19.18 61.15-18.4 60.42-17.25 59.7-16.1 59.1-14.9 58.5-13.7 58.1-12.75 57.7-11.8 57.6-11.55L57.6-11.55Q57.5-11.25 57-10 56.5-8.75 55.85-7.18 55.2-5.6 54.67-4.28 54.15-2.95 54-2.55L54-2.55Q53.5-1.4 53.1-0.95 52.7-0.5 52.05-0.5ZM99.44 0.5L99.44 0.5Q97.19 0.5 95.27-0.5 93.34-1.5 92.04-3.2 90.74-4.9 90.34-7L90.34-7 90.34-9.65Q90.34-12.5 91.39-15.4 92.44-18.3 94.32-20.75 96.19-23.2 98.77-24.68 101.34-26.15 104.34-26.15L104.34-26.15Q106.24-26.15 108.02-25.5 109.79-24.85 111.19-24L111.19-24Q111.49-26.1 111.94-26.9 112.39-27.7 113.49-27.7L113.49-27.7Q114.34-27.7 114.69-27.18 115.04-26.65 115.04-25.35L115.04-25.35Q115.04-22.35 114.92-19.48 114.79-16.6 114.79-13.6L114.79-13.6Q114.79-11.2 115.07-8.65 115.34-6.1 115.34-3.75L115.34-3.75Q115.34-3 115.37-2.25 115.39-1.5 115.12-1.03 114.84-0.55 113.99-0.55L113.99-0.55Q112.79-0.55 112.22-1.68 111.64-2.8 111.44-4.4 111.24-6 111.04-7.4L111.04-7.4Q110.54-6.05 109.37-4.75 108.19-3.45 107.02-2.53 105.84-1.6 105.22-1.23 104.59-0.85 105.19-1.3L105.19-1.3Q104.09-0.5 102.47 0 100.84 0.5 99.44 0.5ZM98.94-2.65L98.94-2.65Q101.19-2.65 103.14-3.95 105.09-5.25 106.57-7.3 108.04-9.35 108.87-11.6 109.69-13.85 109.69-15.75L109.69-15.75Q109.69-16.7 109.47-17.93 109.24-19.15 108.64-20.3 108.04-21.45 107.02-22.2 105.99-22.95 104.34-22.95L104.34-22.95Q102.19-22.95 100.24-21.58 98.29-20.2 96.77-18.07 95.24-15.95 94.39-13.7 93.54-11.45 93.54-9.65L93.54-9.65Q93.54-8.3 94.02-6.65 94.49-5 95.67-3.83 96.84-2.65 98.94-2.65ZM132.99 14.1L132.99 14.1Q131.24 14.1 129.59 13.6 127.94 13.1 126.82 12.05 125.69 11 125.39 9.4L125.39 9.4Q125.29 8.85 125.77 8.5 126.24 8.15 127.04 8.15L127.04 8.15Q127.49 8.15 127.84 8.35 128.19 8.55 128.54 8.8L128.54 8.8Q128.69 8.95 128.84 9.08 128.99 9.2 129.14 9.3L129.14 9.3Q129.79 9.8 130.69 10.4 131.59 11 132.94 11L132.94 11Q134.99 11 136.39 9.83 137.79 8.65 138.72 6.83 139.64 5 140.12 3.05 140.59 1.1 140.74-0.4L140.74-0.4Q140.94-2.2 141.09-4.45 141.24-6.7 141.24-8.4L141.24-8.4Q141.24-9.9 141.09-10.55L141.09-10.55Q139.99-9.05 138.72-7.7 137.44-6.35 136.37-5.35 135.29-4.35 134.79-3.9L134.79-3.9Q133.89-3.15 132.67-2.35 131.44-1.55 130.12-1 128.79-0.45 127.54-0.45L127.54-0.45Q125.69-0.45 124.09-1.35 122.49-2.25 121.52-3.8 120.54-5.35 120.54-7.25L120.54-7.25Q120.54-10.7 121.94-14.1 123.34-17.5 125.82-20.33 128.29-23.15 131.56-24.83 134.84-26.5 138.59-26.5L138.59-26.5Q140.19-26.5 141.44-25.8 142.69-25.1 142.69-23.9L142.69-23.9Q142.69-23.4 142.29-22.8 141.89-22.2 141.29-22.2L141.29-22.2Q141.04-22.2 140.74-22.35L140.74-22.35Q140.14-22.7 139.39-22.93 138.64-23.15 137.79-23.15L137.79-23.15Q136.94-23.15 136.04-22.85L136.04-22.85Q133.59-22.2 131.47-20.73 129.34-19.25 127.72-17.2 126.09-15.15 125.19-12.8 124.29-10.45 124.29-8.05L124.29-8.05Q124.29-6.05 124.87-4.83 125.44-3.6 127.29-3.6L127.29-3.6Q128.49-3.6 129.77-4.35 131.04-5.1 132.17-6.15 133.29-7.2 133.99-8.05L133.99-8.05Q135.04-9.25 136.19-10.7 137.34-12.15 138.39-13.53 139.44-14.9 140.17-15.95 140.89-17 141.09-17.35L141.09-17.35Q141.54-17.9 141.84-18.03 142.14-18.15 142.69-18.15L142.69-18.15Q143.59-18.15 143.99-17.57 144.39-17 144.54-16.2 144.69-15.4 144.79-14.7L144.79-14.7 144.79-10.9Q144.79-8.85 144.69-6.23 144.59-3.6 144.27-0.78 143.94 2.05 143.19 4.67 142.44 7.3 141.14 9.45 139.84 11.6 137.84 12.85 135.84 14.1 132.99 14.1ZM163.54 0.75L163.54 0.75Q159.74 0.75 156.66-0.38 153.59-1.5 151.79-3.93 149.99-6.35 149.99-10.2L149.99-10.2Q149.99-13.25 151.01-16.15 152.04-19.05 153.94-21.4 155.84-23.75 158.49-25.13 161.14-26.5 164.39-26.5L164.39-26.5Q166.64-26.5 168.46-25.65 170.29-24.8 171.39-23.25 172.49-21.7 172.49-19.55L172.49-19.55Q172.49-17.25 171.51-15.18 170.54-13.1 168.89-11.5 167.24-9.9 165.16-8.97 163.09-8.05 160.84-8.05L160.84-8.05Q158.89-8.05 157.19-8.38 155.49-8.7 154.04-9.4L154.04-9.4Q154.04-7.5 154.94-6.18 155.84-4.85 157.24-4.03 158.64-3.2 160.16-2.83 161.69-2.45 162.99-2.45L162.99-2.45Q164.04-2.45 165.09-2.58 166.14-2.7 167.39-2.7L167.39-2.7Q169.24-2.7 169.24-1.1L169.24-1.1Q169.24 0.15 167.49 0.5L167.49 0.5Q166.54 0.7 165.54 0.73 164.54 0.75 163.54 0.75ZM160.84-12.05L160.84-12.05Q162.59-12.05 164.49-12.75 166.39-13.45 167.71-14.95 169.04-16.45 169.04-18.75L169.04-18.75Q169.04-20.8 167.76-22.08 166.49-23.35 164.39-23.35L164.39-23.35Q162.49-23.35 160.66-22.48 158.84-21.6 157.34-20.13 155.84-18.65 154.94-16.8 154.04-14.95 154.04-13L154.04-13Q155.19-12.4 156.94-12.23 158.69-12.05 160.84-12.05Z" opacity="1" transform="matrix(1,0,0,1,0,0)" fill="#919591" class="wordmark-text-0" data-fill-palette-color="primary" id="text-0"></path></svg></g></svg></g></svg></g></svg></g></svg></g></svg></g><defs></defs></svg><rect width="395.52" height="120.98258823529412" fill="none" stroke="none" visibility="hidden"></rect></g></svg></g></svg>